<svg width="32" height="32" viewBox="0 0 32 32" fill="none" xmlns="http://www.w3.org/2000/svg">
  <!-- Background Circle -->
  <circle cx="16" cy="16" r="15" fill="#2D5A3D" stroke="#4A8061" stroke-width="2"/>
  
  <!-- Logbook/Journal -->
  <rect x="8" y="6" width="16" height="20" rx="1" fill="#F5F3F0" stroke="#2D5A3D" stroke-width="0.5"/>
  
  <!-- Binding spine -->
  <rect x="8" y="6" width="2" height="20" fill="#4A8061"/>
  
  <!-- Pages lines -->
  <line x1="12" y1="10" x2="21" y2="10" stroke="#8B9A8C" stroke-width="0.5"/>
  <line x1="12" y1="13" x2="19" y2="13" stroke="#8B9A8C" stroke-width="0.5"/>
  <line x1="12" y1="16" x2="20" y2="16" stroke="#8B9A8C" stroke-width="0.5"/>
  <line x1="12" y1="19" x2="18" y2="19" stroke="#8B9A8C" stroke-width="0.5"/>
  
  <!-- Heart accent (family love) -->
  <path d="M18.5 21C18.5 21 21 19.5 21 17.5C21 16.5 20.2 16 19.5 16C18.8 16 18.5 16.5 18.5 16.5S18.2 16 17.5 16C16.8 16 16 16.5 16 17.5C16 19.5 18.5 21 18.5 21Z" fill="#D4A574"/>
</svg>